Coordinates
version=1
nRows=54
nColumns=12
inDegrees=yes

Units are S.I. units (second, meters, Newtons, ...)
Angles are in degrees

endheader
time	SC_y	SC_z	SC_x	AC_y	AC_z	AC_x	GH_y	GH_z	GH_yy	EL_x	PS_y
       0.0              -16.78          18.18          25.09          43.85        -0.7497         -18.18          108.7         -6.276          11.19          68.58          99.62
  0.008481              -16.78          18.18           25.1          43.85        -0.7512         -18.18          108.7         -6.276          11.18          68.58          99.62
   0.01696              -16.78          18.18           25.1          43.85        -0.7528         -18.18          108.7         -6.276          11.17          68.59          99.61
   0.02544              -16.78          18.18           25.1          43.85        -0.7545         -18.18          108.7         -6.277          11.16           68.6          99.61
   0.03393              -16.78          18.18          25.11          43.85        -0.7564         -18.17          108.7         -6.277          11.15          68.61           99.6
   0.04241              -16.78          18.18          25.11          43.85        -0.7583         -18.17          108.7         -6.277          11.13          68.62           99.6
   0.05089              -16.78          18.18          25.12          43.85        -0.7604         -18.17          108.7         -6.278          11.12          68.62          99.59
   0.05937              -16.78          18.18          25.12          43.85        -0.7626         -18.17          108.7         -6.278          11.11          68.63          99.58
   0.06785              -16.78          18.18          25.13          43.85         -0.765         -18.17          108.7         -6.279          11.09          68.65          99.58
   0.07633              -16.78          18.17          25.13          43.85        -0.7675         -18.17          108.7         -6.279          11.07          68.66          99.57
   0.08481              -16.78          18.17          25.14          43.85        -0.7703         -18.17          108.7          -6.28          11.06          68.67          99.56
    0.0933              -16.78          18.17          25.14          43.85        -0.7732         -18.17          108.7          -6.28          11.04          68.68          99.56
    0.1018              -16.78          18.17          25.15          43.85        -0.7764         -18.17          108.8         -6.281          11.02           68.7          99.55
    0.1103              -16.78          18.17          25.16          43.86        -0.7798         -18.16          108.8         -6.281          10.99          68.71          99.54
    0.1187              -16.79          18.17          25.17          43.86        -0.7835         -18.16          108.8         -6.282          10.97          68.73          99.53
    0.1272              -16.79          18.17          25.18          43.86        -0.7876         -18.16          108.8         -6.283          10.94          68.75          99.52
    0.1357              -16.79          18.17          25.19          43.86        -0.7919         -18.16          108.8         -6.284          10.91          68.77           99.5
    0.1442              -16.79          18.17           25.2          43.86        -0.7967         -18.16          108.8         -6.284          10.88          68.79          99.49
    0.1527              -16.79          18.16          25.21          43.86        -0.8019         -18.15          108.8         -6.285          10.85          68.82          99.48
    0.1611              -16.79          18.16          25.22          43.86        -0.8076         -18.15          108.8         -6.286          10.81          68.84          99.46
    0.1696              -16.79          18.16          25.24          43.86        -0.8139         -18.15          108.8         -6.288          10.77          68.87          99.44
    0.1781              -16.79          18.16          25.25          43.86        -0.8207         -18.14          108.8         -6.289          10.73           68.9          99.42
    0.1866              -16.79          18.15          25.27          43.87        -0.8283         -18.14          108.8          -6.29          10.68          68.94           99.4
    0.1951               -16.8          18.15          25.29          43.87        -0.8368         -18.14          108.8         -6.292          10.62          68.98          99.38
    0.2036               -16.8          18.15          25.31          43.87        -0.8461         -18.13          108.8         -6.293          10.56          69.02          99.35
     0.212               -16.8          18.15          25.33          43.87        -0.8566         -18.13          108.9         -6.295          10.49          69.07          99.33
    0.2205               -16.8          18.14          25.36          43.87        -0.8683         -18.12          108.9         -6.297          10.42          69.12          99.29
     0.229              -16.81          18.14          25.39          43.88        -0.8815         -18.12          108.9           -6.3          10.33          69.18          99.26
    0.2375              -16.81          18.13          25.42          43.88        -0.8964         -18.11          108.9         -6.303          10.23          69.25          99.22
     0.246              -16.81          18.13          25.46          43.88        -0.9133          -18.1          108.9         -6.306          10.12          69.33          99.17
    0.2544              -16.82          18.12           25.5          43.89        -0.9325         -18.09          109.0         -6.309          9.997          69.42          99.12
    0.2629              -16.82          18.11          25.55          43.89        -0.9547         -18.08          109.0         -6.313          9.852          69.52          99.06
    0.2714              -16.83           18.1           25.6           43.9        -0.9802         -18.07          109.0         -6.318          9.685          69.64          98.99
    0.2799              -16.83          18.09          25.67          43.91          -1.01         -18.06          109.1         -6.323          9.492          69.77           98.9
    0.2884              -16.84          18.08          25.75          43.91         -1.045         -18.04          109.1          -6.33          9.265          69.94          98.81
    0.2969              -16.85          18.07          25.84          43.92         -1.086         -18.02          109.2         -6.337          8.997          70.12           98.7
    0.3053              -16.86          18.05          25.95          43.93         -1.134          -18.0          109.2         -6.346          8.679          70.35          98.56
    0.3138              -16.87          18.03          26.08          43.94         -1.193         -17.97          109.3         -6.357          8.299          70.62           98.4
    0.3223              -16.89          18.01          26.23          43.96         -1.263         -17.94          109.4         -6.369          7.838          70.94          98.21
    0.3308               -16.9          17.98          26.43          43.98         -1.349          -17.9          109.5         -6.385          7.275          71.34          97.97
    0.3393              -16.93          17.95          26.66           44.0         -1.456         -17.85          109.7         -6.404           6.58          71.83          97.68
    0.3477              -16.95           17.9          26.96          44.03         -1.589         -17.79          109.9         -6.429          5.713          72.44          97.31
    0.3562              -16.99          17.85          27.33          44.07         -1.756         -17.71          110.1         -6.459          4.622          73.21          96.85
    0.3647              -17.03          17.78           27.8          44.11         -1.968         -17.61          110.4         -6.498          3.234          74.19          96.27
    0.3732              -17.09          17.69          28.41          44.17          -2.24         -17.49          110.8         -6.547          1.458          75.45          95.52
    0.3817              -17.16          17.57          29.18          44.24         -2.589         -17.33          111.3         -6.611        -0.8208          77.05          94.56
    0.3901              -17.26          17.43          30.17          44.34         -3.035         -17.12          111.9         -6.692         -3.732          79.11          93.33
    0.3986              -17.38          17.24          31.42          44.46         -3.596         -16.86          112.7         -6.794         -7.393          81.69          91.78
    0.4071              -17.52          17.02          32.94          44.61         -4.279         -16.54          113.6         -6.918         -11.85          84.84           89.9
    0.4156              -17.69          16.76           34.7          44.78         -5.071         -16.18          114.7         -7.062         -17.02          88.49          87.72
    0.4241              -17.87          16.47           36.6          44.96         -5.929         -15.78          115.9         -7.219         -22.62          92.45          85.36
    0.4326              -18.05          16.19          38.51          45.14         -6.786         -15.38          117.1         -7.375         -28.22           96.4           83.0
     0.441              -18.21          15.93          40.27          45.31         -7.578         -15.01          118.2         -7.519         -33.39          100.0          80.82
    0.4495              -18.35           15.7          41.78          45.46         -8.262          -14.7          119.2         -7.643         -37.85          103.2          78.94
